<?xml version="1.0" encoding="UTF-8" standalone="no"?>
<!-- Generator: Adobe Illustrator 25.2.3, SVG Export Plug-In . SVG Version: 6.00 Build 0)  -->

<svg
   version="1.1"
   id="Layer_1"
   x="0px"
   y="0px"
   viewBox="0 0 595.3 595.3"
   style="enable-background:new 0 0 595.3 595.3;"
   xml:space="preserve"
   sodipodi:docname="utcn_logo.svg"
   inkscape:version="1.3.2 (091e20e, 2023-11-25, custom)"
   xmlns:inkscape="http://www.inkscape.org/namespaces/inkscape"
   xmlns:sodipodi="http://sodipodi.sourceforge.net/DTD/sodipodi-0.dtd"
   xmlns="http://www.w3.org/2000/svg"
   xmlns:svg="http://www.w3.org/2000/svg"><defs
   id="defs27">
	
	
	
	
	
	
	
	
	
	
	
	
	
	
	
	
	
	
	
	
	
	
	
	
	
	
	
	
	
	
	
	
	
	
	
	
	
	
	
	
	
	
	
</defs><sodipodi:namedview
   id="namedview27"
   pagecolor="#505050"
   bordercolor="#eeeeee"
   borderopacity="1"
   inkscape:showpageshadow="0"
   inkscape:pageopacity="0"
   inkscape:pagecheckerboard="0"
   inkscape:deskcolor="#505050"
   inkscape:zoom="1.9704351"
   inkscape:cx="297.39624"
   inkscape:cy="297.64999"
   inkscape:window-width="2560"
   inkscape:window-height="1369"
   inkscape:window-x="-8"
   inkscape:window-y="-8"
   inkscape:window-maximized="1"
   inkscape:current-layer="Layer_1" />
<style
   type="text/css"
   id="style1">
	.st0{fill:#1F1A17;}
	.st1{fill-rule:evenodd;clip-rule:evenodd;fill:#1F1A17;}
	.st2{fill-rule:evenodd;clip-rule:evenodd;fill:#A8261C;}
</style>
<path
   class="st0"
   d="m 195.1,409.7 c -0.1,0.9 -0.4,2 -1.1,3.2 -0.6,1.2 -1.4,2.1 -2.4,2.7 -1,0.6 -1.8,1 -2.6,1.2 -0.8,0.2 -1.6,0.3 -2.6,0.3 -1.3,0 -2.5,-0.2 -3.7,-0.8 -1.1,-0.5 -2,-1.2 -2.7,-1.9 -0.7,-0.8 -1.2,-1.6 -1.5,-2.5 -0.3,-0.9 -0.5,-1.7 -0.5,-2.5 0,-1.7 0.3,-3 0.9,-3.9 0.6,-0.9 1.2,-1.6 1.7,-2.1 0.5,-0.5 1.3,-0.9 2.3,-1.4 1,-0.5 2.2,-0.7 3.6,-0.7 1.1,0 2.3,0.2 3.4,0.7 1.1,0.5 2,1.1 2.8,1.9 0.8,0.8 1.3,1.5 1.6,2.3 0.3,0.8 0.5,1.4 0.6,2 0.2,0.4 0.2,0.9 0.2,1.5 z m -3,-0.5 c 0,-0.7 -0.1,-1.3 -0.3,-1.9 -0.2,-0.6 -0.6,-1.2 -1,-1.6 -0.4,-0.5 -0.9,-0.9 -1.4,-1.1 -0.5,-0.2 -1,-0.4 -1.3,-0.5 -0.4,-0.1 -0.8,-0.1 -1.1,-0.1 -1.4,0 -2.6,0.3 -3.5,1.1 -0.9,0.7 -1.5,1.4 -1.8,2 -0.3,0.6 -0.4,1.4 -0.4,2.2 0,0.5 0.1,1 0.2,1.4 0.2,0.5 0.5,1 0.9,1.6 0.4,0.6 1.1,1.1 1.9,1.5 0.8,0.4 1.6,0.6 2.4,0.6 1.5,0 2.7,-0.4 3.5,-1.1 0.8,-0.8 1.4,-1.4 1.7,-2.1 0.1,-0.7 0.2,-1.3 0.2,-2 z"
   id="path1" /><polygon
   class="st0"
   points="203.9,407.7 208.9,407.7 208.9,410.5 203.9,410.5 203.9,416.7 200.8,416.7 200.8,401.5 209.2,401.5 209.2,404.2 203.9,404.2 "
   id="polygon1" /><path
   class="st0"
   d="m 243.3,405.8 h -3.4 c -1.2,-1.3 -2.7,-1.9 -4.3,-1.9 -0.5,0 -1,0.1 -1.4,0.2 -0.4,0.1 -1,0.4 -1.6,0.7 -0.6,0.3 -1.2,0.9 -1.7,1.7 -0.5,0.8 -0.8,1.6 -0.8,2.5 0,1.5 0.6,2.8 1.7,3.8 1.1,1 2.4,1.5 3.8,1.5 0.8,0 1.5,-0.1 2.2,-0.5 0.7,-0.3 1.3,-0.7 1.9,-1.3 h 3.5 c -0.5,1.1 -1.2,2 -2.2,2.7 -1,0.7 -1.8,1.1 -2.6,1.3 -0.8,0.2 -1.4,0.3 -1.8,0.4 -0.5,0.1 -0.9,0.1 -1.4,0.1 -1.5,-0.1 -2.9,-0.5 -4.1,-1.2 -1.2,-0.7 -2.1,-1.4 -2.6,-2.3 -0.5,-0.9 -0.9,-1.7 -1.1,-2.4 -0.2,-0.7 -0.3,-1.5 -0.3,-2.3 0,-0.4 0,-0.8 0.1,-1.1 0.1,-0.4 0.3,-0.9 0.6,-1.6 0.3,-0.7 0.8,-1.4 1.5,-2.2 0.7,-0.8 1.6,-1.4 2.7,-1.9 1.1,-0.5 2.3,-0.8 3.6,-0.8 0.5,0 1,0 1.5,0.1 0.5,0.1 1.1,0.3 2,0.6 0.8,0.3 1.7,0.8 2.5,1.5 0.8,0.7 1.4,1.5 1.7,2.4 z"
   id="path2" /><polygon
   class="st0"
   points="248.6,401.5 251.6,401.5 251.6,414 256.6,414 256.6,416.7 248.6,416.7 "
   id="polygon2" /><path
   class="st0"
   d="m 272.6,411.8 c 0,0.9 -0.2,1.7 -0.7,2.6 -0.5,0.8 -1.1,1.5 -2,2 -0.9,0.5 -1.8,0.7 -2.8,0.7 -0.8,0 -1.5,-0.1 -2.1,-0.4 -0.7,-0.3 -1.4,-0.8 -2.2,-1.6 -0.8,-0.8 -1.2,-1.9 -1.2,-3.4 v -10.2 h 3 v 10.2 c 0,0.8 0.2,1.4 0.7,1.9 0.5,0.5 1.1,0.7 1.7,0.7 0.4,0 0.7,-0.1 1,-0.2 0.3,-0.1 0.6,-0.3 1,-0.6 0.4,-0.3 0.6,-0.9 0.6,-1.7 v -10.4 h 3.1 v 10.4 z"
   id="path3" /><path
   class="st0"
   d="m 286.7,412.8 c 0,1.2 -0.4,2.2 -1.2,3 -0.8,0.8 -1.8,1.2 -2.9,1.2 -1.4,0 -2.5,-0.3 -3.4,-1.1 -0.9,-0.7 -1.4,-1.6 -1.4,-2.8 h 3 c 0,0.3 0.2,0.5 0.5,0.7 0.3,0.2 0.6,0.3 1,0.3 0.5,0 0.8,-0.2 1.1,-0.5 0.2,-0.3 0.4,-0.8 0.4,-1.4 v -11 h 3 v 11.6 z"
   id="path4" /><rect
   x="293.10001"
   y="409"
   class="st0"
   width="6.0999999"
   height="2.4000001"
   id="rect4" /><polygon
   class="st0"
   points="308.6,405.6 308.6,416.7 305.6,416.7 305.6,401.5 309.1,401.5 315.9,412.7 315.9,401.5 318.9,401.5 318.9,416.7 315.5,416.7 "
   id="polygon4" /><path
   class="st0"
   d="m 340,416.7 h -3.3 l -1.8,-3.9 h -5.8 l -1.8,3.9 H 324 l 6.8,-15.2 h 2.3 z m -6.3,-6.7 -1.8,-4.6 -1.7,4.6 z"
   id="path5" /><path
   class="st0"
   d="m 355.4,406.3 c -0.1,1.4 -0.6,2.5 -1.6,3.4 -0.9,0.8 -2.2,1.2 -3.9,1.2 h -2 v 5.8 h -3 v -15.2 h 4.5 c 1.5,0 2.7,0.2 3.7,0.8 0.9,0.5 1.5,1 1.8,1.6 0.2,0.6 0.4,1 0.5,1.4 0,0.3 0,0.7 0,1 z m -3,-0.1 c 0,-1.3 -0.9,-2 -2.8,-2 H 348 v 4 h 1.5 c 0.9,0 1.6,-0.2 2.1,-0.5 0.6,-0.4 0.8,-0.9 0.8,-1.5 z"
   id="path6" /><path
   class="st0"
   d="m 376.9,409.7 c -0.1,0.9 -0.4,2 -1.1,3.2 -0.6,1.2 -1.4,2.1 -2.4,2.7 -1,0.6 -1.8,1 -2.6,1.2 -0.8,0.2 -1.6,0.3 -2.6,0.3 -1.3,0 -2.5,-0.2 -3.7,-0.8 -1.1,-0.5 -2,-1.2 -2.7,-1.9 -0.7,-0.8 -1.2,-1.6 -1.5,-2.5 -0.3,-0.9 -0.5,-1.7 -0.5,-2.5 0,-1.7 0.3,-3 0.9,-3.9 0.6,-0.9 1.2,-1.6 1.7,-2.1 0.5,-0.5 1.3,-0.9 2.3,-1.4 1,-0.5 2.2,-0.7 3.6,-0.7 1.1,0 2.3,0.2 3.4,0.7 1.1,0.5 2,1.1 2.8,1.9 0.8,0.8 1.3,1.5 1.6,2.3 0.3,0.8 0.5,1.4 0.6,2 0.1,0.4 0.2,0.9 0.2,1.5 z m -3,-0.5 c 0,-0.7 -0.1,-1.3 -0.3,-1.9 -0.2,-0.6 -0.6,-1.2 -1,-1.6 -0.4,-0.5 -0.9,-0.9 -1.4,-1.1 -0.5,-0.2 -1,-0.4 -1.3,-0.5 -0.4,-0.1 -0.8,-0.1 -1.1,-0.1 -1.4,0 -2.6,0.3 -3.5,1.1 -0.9,0.7 -1.5,1.4 -1.8,2 -0.3,0.6 -0.4,1.4 -0.4,2.2 0,0.5 0.1,1 0.2,1.4 0.2,0.5 0.5,1 0.9,1.6 0.4,0.6 1.1,1.1 1.9,1.5 0.8,0.4 1.6,0.6 2.4,0.6 1.5,0 2.7,-0.4 3.5,-1.1 0.8,-0.8 1.4,-1.4 1.7,-2.1 0,-0.7 0.2,-1.3 0.2,-2 z"
   id="path7" /><path
   class="st0"
   d="m 397.9,405.8 h -3.4 c -1.2,-1.3 -2.7,-1.9 -4.3,-1.9 -0.5,0 -1,0.1 -1.4,0.2 -0.4,0.1 -1,0.4 -1.6,0.7 -0.6,0.3 -1.2,0.9 -1.7,1.7 -0.5,0.8 -0.8,1.6 -0.8,2.5 0,1.5 0.6,2.8 1.7,3.8 1.1,1 2.4,1.5 3.8,1.5 0.8,0 1.5,-0.1 2.2,-0.5 0.7,-0.3 1.3,-0.7 1.9,-1.3 h 3.5 c -0.5,1.1 -1.2,2 -2.2,2.7 -1,0.7 -1.8,1.1 -2.6,1.3 -0.8,0.2 -1.4,0.3 -1.8,0.4 -0.5,0.1 -0.9,0.1 -1.4,0.1 -1.5,-0.1 -2.9,-0.5 -4.1,-1.2 -1.2,-0.7 -2.1,-1.4 -2.6,-2.3 -0.5,-0.9 -0.9,-1.7 -1.1,-2.4 -0.2,-0.7 -0.3,-1.5 -0.3,-2.3 0,-0.4 0,-0.8 0.1,-1.1 0.1,-0.4 0.3,-0.9 0.6,-1.6 0.3,-0.7 0.8,-1.4 1.5,-2.2 0.7,-0.8 1.6,-1.4 2.7,-1.9 1.1,-0.5 2.3,-0.8 3.6,-0.8 0.5,0 1,0 1.5,0.1 0.5,0.1 1.1,0.3 2,0.6 0.8,0.3 1.7,0.8 2.5,1.5 0.8,0.7 1.3,1.5 1.7,2.4 z"
   id="path8" /><path
   class="st0"
   d="m 417.8,416.7 h -3.3 l -1.8,-3.9 h -5.8 l -1.8,3.9 h -3.3 l 6.8,-15.2 h 2.3 z m -6.3,-6.7 -1.8,-4.6 -1.7,4.6 z"
   id="path9" /><polygon
   class="st0"
   points="151.8,316 151.8,304.8 175.3,304.8 175.3,316 169.1,316 169.1,339 158,339 158,316 "
   id="polygon9" /><polygon
   class="st0"
   points="204.4,304.8 204.4,314.1 194.7,314.1 194.7,317.4 203.5,317.4 203.5,326.1 194.7,326.1 194.7,329.7 204.7,329.7 204.7,339 183.8,339 183.8,304.8 "
   id="polygon10" /><path
   class="st0"
   d="m 236.8,318.4 c -1,-1.1 -2,-1.9 -3.1,-2.4 -1,-0.5 -2.2,-0.8 -3.3,-0.8 -1.8,0 -3.3,0.6 -4.4,1.9 -1.1,1.2 -1.7,2.9 -1.7,4.9 0,2 0.5,3.6 1.6,4.8 1,1.2 2.5,1.8 4.2,1.8 1.1,0 2.2,-0.2 3.2,-0.8 1.1,-0.5 2.3,-1.3 3.6,-2.4 l -0.3,12.9 c -1.2,0.5 -2.4,1 -3.6,1.2 -1.2,0.2 -2.4,0.4 -3.6,0.4 -1.5,0 -2.9,-0.2 -4.4,-0.6 -1.4,-0.4 -2.6,-0.9 -3.8,-1.6 -2.7,-1.7 -4.8,-4 -6.2,-6.6 -1.4,-2.7 -2.1,-5.7 -2.1,-9.2 0,-2.5 0.4,-4.9 1.2,-7.1 0.8,-2.2 1.9,-4.1 3.5,-5.7 1.5,-1.7 3.3,-3 5.3,-3.8 2,-0.9 4.2,-1.3 6.6,-1.3 1.3,0 2.5,0.1 3.7,0.4 1.2,0.3 2.4,0.7 3.5,1.3 v 12.7 z"
   id="path10" /><polygon
   class="st0"
   points="257.7,304.8 257.7,316.2 264.5,316.2 264.5,304.8 275.6,304.8 275.6,339 264.5,339 264.5,327 257.7,327 257.7,339 246.6,339 246.6,304.8 "
   id="polygon11" /><path
   class="st0"
   d="m 286.4,339 v -34.2 h 10.9 l 9.6,17.9 c -0.1,-0.8 -0.2,-1.7 -0.3,-2.6 0,-1 -0.1,-2.2 -0.1,-3.8 v -11.5 h 10.7 V 339 h -11 l -9.5,-17.7 c 0.1,0.8 0.2,1.6 0.3,2.4 0,0.9 0.1,1.9 0.1,3 V 339 Z"
   id="path11" /><rect
   x="328"
   y="304.79999"
   class="st0"
   width="11.3"
   height="34.200001"
   id="rect11" /><path
   class="st0"
   d="m 373,318.4 c -1,-1.1 -2,-1.9 -3.1,-2.4 -1,-0.5 -2.2,-0.8 -3.3,-0.8 -1.8,0 -3.3,0.6 -4.4,1.9 -1.1,1.2 -1.7,2.9 -1.7,4.9 0,2 0.5,3.6 1.6,4.8 1,1.2 2.5,1.8 4.2,1.8 1.1,0 2.2,-0.2 3.2,-0.8 1.1,-0.5 2.3,-1.3 3.6,-2.4 l -0.3,12.9 c -1.2,0.5 -2.4,1 -3.6,1.2 -1.2,0.2 -2.4,0.4 -3.6,0.4 -1.5,0 -2.9,-0.2 -4.4,-0.6 -1.4,-0.4 -2.6,-0.9 -3.8,-1.6 -2.7,-1.7 -4.8,-4 -6.2,-6.6 -1.4,-2.7 -2.1,-5.7 -2.1,-9.2 0,-2.5 0.4,-4.9 1.2,-7.1 0.8,-2.2 1.9,-4.1 3.5,-5.7 1.5,-1.7 3.3,-3 5.3,-3.8 2,-0.9 4.2,-1.3 6.6,-1.3 1.3,0 2.5,0.1 3.7,0.4 1.2,0.3 2.4,0.7 3.5,1.3 v 12.7 z"
   id="path12" /><path
   class="st0"
   d="m 378.6,339 11,-34.2 H 402 l 10.8,34.2 h -11.9 l -1,-4.3 h -8.4 l -1,4.3 z m 14.8,-12.4 h 4.6 l -1,-3.9 c -0.5,-2 -0.8,-3.5 -1,-4.5 -0.2,-1.1 -0.3,-2.1 -0.3,-3 h -0.2 c 0,0.9 -0.1,1.9 -0.3,3 -0.2,1.1 -0.5,2.6 -1,4.5 z"
   id="path13" /><polygon
   class="st0"
   points="430.6,304.8 430.6,327.9 441.4,327.9 441.4,339 419.5,339 419.5,304.8 "
   id="polygon13" /><path
   class="st0"
   d="m 141.3,372.2 v -18.6 h 11.1 v 18.7 c 0,2.2 0.2,3.6 0.7,4.4 0.5,0.8 1.3,1.2 2.4,1.2 1.1,0 1.9,-0.4 2.4,-1.3 0.5,-0.8 0.7,-2.3 0.7,-4.4 v -18.7 h 11.1 v 18.6 c 0,2.4 -0.1,4.4 -0.4,6 -0.3,1.6 -0.7,2.9 -1.4,4 -1.3,2.1 -2.9,3.8 -5.1,4.9 -2.2,1.1 -4.6,1.7 -7.4,1.7 -2.7,0 -5.2,-0.6 -7.4,-1.7 -2.1,-1.1 -3.8,-2.8 -5.1,-4.9 -0.6,-1.1 -1,-2.3 -1.3,-3.9 -0.1,-1.5 -0.3,-3.6 -0.3,-6 z"
   id="path14" /><path
   class="st0"
   d="m 180.3,387.8 v -34.2 h 10.9 l 9.6,17.9 c -0.1,-0.8 -0.2,-1.7 -0.3,-2.6 0,-1 -0.1,-2.2 -0.1,-3.8 v -11.5 h 10.7 v 34.2 h -11 l -9.5,-17.7 c 0.1,0.8 0.2,1.6 0.3,2.4 0,0.9 0.1,1.9 0.1,3 v 12.3 z"
   id="path15" /><rect
   x="222"
   y="353.60001"
   class="st0"
   width="11.3"
   height="34.200001"
   id="rect15" /><path
   class="st0"
   d="m 251.6,387.8 -11.8,-34.2 h 12 l 3.3,12.4 c 0.5,1.8 0.8,3.3 1.1,4.6 0.2,1.2 0.3,2.4 0.4,3.5 h 0.2 c 0.1,-1.1 0.3,-2.4 0.6,-3.6 0.3,-1.3 0.6,-2.7 1,-4.2 l 3.5,-12.7 h 11.8 l -11.8,34.2 z"
   id="path16" /><polygon
   class="st0"
   points="300.6,353.6 300.6,362.9 290.9,362.9 290.9,366.2 299.7,366.2 299.7,374.9 290.9,374.9 290.9,378.5 300.9,378.5 300.9,387.8 280,387.8 280,353.6 "
   id="polygon16" /><path
   class="st0"
   d="m 310.3,387.8 v -34.2 h 14 c 4.1,0 7.2,1 9.3,3 2.2,2 3.2,4.8 3.2,8.6 0,2.4 -0.5,4.4 -1.6,6 -1.1,1.6 -2.6,2.5 -4.4,2.8 l 8.3,13.9 h -12.5 l -5.4,-11.3 v 11.3 h -10.9 z m 10.9,-25.4 v 6.7 h 1.7 c 1,0 1.9,-0.3 2.4,-0.9 0.6,-0.6 0.9,-1.4 0.9,-2.4 0,-1.1 -0.3,-1.9 -0.9,-2.5 -0.6,-0.6 -1.4,-0.9 -2.4,-0.9 z"
   id="path17" /><path
   class="st0"
   d="m 343.3,384.9 3.5,-9.6 c 1.6,1.2 3,2.1 4.2,2.7 1.3,0.6 2.4,0.9 3.5,0.9 0.8,0 1.4,-0.1 1.8,-0.5 0.4,-0.3 0.6,-0.8 0.6,-1.3 0,-1 -1.1,-1.7 -3.3,-2.2 -0.7,-0.1 -1.3,-0.3 -1.6,-0.4 -2.3,-0.6 -4.1,-1.7 -5.3,-3.3 -1.3,-1.6 -1.9,-3.6 -1.9,-5.9 0,-3.7 1.2,-6.7 3.6,-9 2.4,-2.3 5.5,-3.4 9.3,-3.4 1.8,0 3.5,0.2 5.2,0.8 1.7,0.5 3.5,1.3 5.2,2.3 l -3.4,8.9 c -1.1,-0.9 -2.1,-1.5 -3.2,-2 -1.1,-0.4 -2.1,-0.7 -3.2,-0.7 -0.8,0 -1.4,0.1 -1.8,0.4 -0.4,0.3 -0.6,0.7 -0.6,1.2 0,1 1.6,1.8 4.6,2.5 0.5,0.1 0.9,0.2 1.1,0.3 2.1,0.5 3.8,1.6 5,3.3 1.3,1.6 1.9,3.6 1.9,5.9 0,3.8 -1.3,6.9 -3.7,9.3 -2.5,2.4 -5.7,3.6 -9.6,3.6 -2,0 -4,-0.3 -6.1,-1 -1.7,-0.6 -3.8,-1.5 -5.8,-2.8 z"
   id="path18" /><rect
   x="377.70001"
   y="353.60001"
   class="st0"
   width="11.3"
   height="34.200001"
   id="rect18" /><polygon
   class="st0"
   points="397.6,364.8 397.6,353.6 421.1,353.6 421.1,364.8 414.9,364.8 414.9,387.8 403.8,387.8 403.8,364.8 "
   id="polygon18" /><path
   class="st0"
   d="M 434.6,387.8 V 372.7 L 424.3,353.6 H 437 l 2.6,6.6 c 0.3,0.6 0.5,1.4 0.9,2.6 v 0.2 c 0.2,-0.6 0.4,-1.3 0.8,-2.4 0,-0.2 0.1,-0.3 0.1,-0.4 l 2.6,-6.6 h 12.6 l -10.7,19.1 v 15.1 z"
   id="path19" /><path
   class="st0"
   d="m 247.1,439.4 h -3.8 l -4.3,-5.9 v 5.9 h -3 v -15.2 h 4.4 c 0.7,0 1.3,0 1.9,0.1 0.5,0 1.1,0.2 1.9,0.5 0.7,0.3 1.3,0.7 1.7,1.2 0.4,0.6 0.7,1.1 0.8,1.5 0.2,0.5 0.2,1 0.2,1.6 0,1 -0.4,2 -1,2.9 -0.7,0.9 -1.7,1.5 -3.2,1.8 z M 243.9,429 c 0,-1.4 -1.1,-2.1 -3.2,-2.1 H 239 v 4.5 h 1.9 c 1,0 1.7,-0.2 2.2,-0.6 0.5,-0.4 0.8,-1 0.8,-1.8 z"
   id="path20" /><path
   class="st0"
   d="m 268.3,432.4 c -0.1,0.9 -0.4,2 -1.1,3.2 -0.6,1.2 -1.4,2.1 -2.4,2.7 -1,0.6 -1.8,1 -2.6,1.2 -0.8,0.2 -1.6,0.3 -2.6,0.3 -1.3,0 -2.5,-0.2 -3.7,-0.8 -1.1,-0.5 -2,-1.2 -2.7,-1.9 -0.7,-0.8 -1.2,-1.6 -1.5,-2.5 -0.3,-0.9 -0.5,-1.7 -0.5,-2.5 0,-1.7 0.3,-3 0.9,-3.9 0.6,-0.9 1.2,-1.6 1.7,-2.1 0.5,-0.5 1.3,-0.9 2.3,-1.4 1,-0.5 2.2,-0.7 3.6,-0.7 1.1,0 2.3,0.2 3.4,0.7 1.1,0.5 2,1.1 2.8,1.9 0.8,0.8 1.3,1.5 1.6,2.3 0.3,0.8 0.5,1.4 0.6,2 0.2,0.4 0.2,0.9 0.2,1.5 z m -3,-0.6 c 0,-0.7 -0.1,-1.3 -0.3,-1.9 -0.2,-0.6 -0.6,-1.2 -1,-1.6 -0.4,-0.5 -0.9,-0.9 -1.4,-1.1 -0.5,-0.2 -1,-0.4 -1.3,-0.5 -0.4,-0.1 -0.8,-0.1 -1.1,-0.1 -1.4,0 -2.6,0.3 -3.5,1.1 -0.9,0.7 -1.5,1.4 -1.8,2 -0.3,0.6 -0.4,1.4 -0.4,2.2 0,0.5 0.1,1 0.2,1.4 0.2,0.5 0.5,1 0.9,1.6 0.4,0.6 1.1,1.1 1.9,1.5 0.8,0.4 1.6,0.6 2.4,0.6 1.5,0 2.7,-0.4 3.5,-1.1 0.8,-0.8 1.4,-1.4 1.7,-2.1 0.1,-0.6 0.2,-1.2 0.2,-2 z"
   id="path21" /><polygon
   class="st0"
   points="288.1,427.9 283.8,439.4 281.3,439.4 277,427.9 277,439.4 274,439.4 274,424.2 278.1,424.2 282.5,435.8 287,424.2 291.1,424.2 291.1,439.4 288.1,439.4 "
   id="polygon21" /><path
   class="st0"
   d="m 312,439.4 h -3.3 l -1.8,-3.9 H 301 l -1.8,3.9 h -3.3 l 6.8,-15.2 h 2.3 z m -6.3,-6.7 -1.8,-4.6 -1.7,4.6 z"
   id="path22" /><polygon
   class="st0"
   points="319.9,428.3 319.9,439.4 316.9,439.4 316.9,424.2 320.4,424.2 327.1,435.4 327.1,424.2 330.2,424.2 330.2,439.4 326.8,439.4 "
   id="polygon22" /><rect
   x="336.60001"
   y="424.20001"
   class="st0"
   width="3"
   height="15.2"
   id="rect22" /><path
   class="st0"
   d="m 360.8,439.4 h -3.3 l -1.8,-3.9 h -5.8 l -1.8,3.9 h -3.3 l 6.8,-15.2 h 2.3 z m -6.3,-6.7 -1.8,-4.6 -1.7,4.6 z"
   id="path23" /><path
   class="st1"
   d="m 209.5,146.7 h 76 c 6.2,0 9,1.9 9,7.4 v 129.3 c -10.7,-0.3 -20.9,-2.5 -30.3,-6.4 V 167 c 0,-4.6 -2.9,-12.3 -11.5,-12.4 h -43.2 z"
   id="path24" /><path
   class="st2"
   d="m 240.7,265.2 c 4.1,3 9.1,5.7 13.7,7.8 V 172.6 c 0,-5.3 -4.4,-8.2 -10.6,-8.2 h -34.3 v 35.4 c 0,28.2 8.1,48.7 31.2,65.4"
   id="path25"
   style="fill:#201b18;fill-opacity:1" /><path
   class="st1"
   d="m 385.8,146.7 h -76 c -6.2,0 -9,1.9 -9,7.4 v 129.3 c 10.7,-0.3 20.9,-2.5 30.3,-6.4 V 167 c 0,-4.6 2.9,-12.3 11.5,-12.4 h 43.2 z"
   id="path26" /><path
   class="st2"
   d="m 354.6,265.2 c -4.1,3 -9.1,5.7 -13.7,7.8 V 172.6 c 0,-5.3 4.4,-8.2 10.6,-8.2 h 34.3 v 35.4 c 0,28.2 -8.1,48.7 -31.2,65.4"
   id="path27"
   style="fill:#201b18;fill-opacity:1" />
</svg>
