<?xml version="1.0" encoding="utf-8"?>
<!-- Generator: Adobe Illustrator 25.2.3, SVG Export Plug-In . SVG Version: 6.00 Build 0)  -->
<svg version="1.1" id="Layer_1" xmlns="http://www.w3.org/2000/svg" xmlns:xlink="http://www.w3.org/1999/xlink" x="0px" y="0px"
	 viewBox="0 0 595.3 595.3" style="enable-background:new 0 0 595.3 595.3;" xml:space="preserve">
<style type="text/css">
	.st0{fill:#1F1A17;}
	.st1{fill-rule:evenodd;clip-rule:evenodd;fill:#1F1A17;}
	.st2{fill-rule:evenodd;clip-rule:evenodd;fill:#A8261C;}
</style>
<g>
	<path class="st0" d="M195.1,409.7c-0.1,0.9-0.4,2-1.1,3.2c-0.6,1.2-1.4,2.1-2.4,2.7c-1,0.6-1.8,1-2.6,1.2c-0.8,0.2-1.6,0.3-2.6,0.3
		c-1.3,0-2.5-0.2-3.7-0.8c-1.1-0.5-2-1.2-2.7-1.9c-0.7-0.8-1.2-1.6-1.5-2.5c-0.3-0.9-0.5-1.7-0.5-2.5c0-1.7,0.3-3,0.9-3.9
		c0.6-0.9,1.2-1.6,1.7-2.1c0.5-0.5,1.3-0.9,2.3-1.4c1-0.5,2.2-0.7,3.6-0.7c1.1,0,2.3,0.2,3.4,0.7c1.1,0.5,2,1.1,2.8,1.9
		c0.8,0.8,1.3,1.5,1.6,2.3c0.3,0.8,0.5,1.4,0.6,2C195.1,408.6,195.1,409.1,195.1,409.7z M192.1,409.2c0-0.7-0.1-1.3-0.3-1.9
		c-0.2-0.6-0.6-1.2-1-1.6c-0.4-0.5-0.9-0.9-1.4-1.1c-0.5-0.2-1-0.4-1.3-0.5c-0.4-0.1-0.8-0.1-1.1-0.1c-1.4,0-2.6,0.3-3.5,1.1
		c-0.9,0.7-1.5,1.4-1.8,2c-0.3,0.6-0.4,1.4-0.4,2.2c0,0.5,0.1,1,0.2,1.4c0.2,0.5,0.5,1,0.9,1.6c0.4,0.6,1.1,1.1,1.9,1.5
		c0.8,0.4,1.6,0.6,2.4,0.6c1.5,0,2.7-0.4,3.5-1.1c0.8-0.8,1.4-1.4,1.7-2.1C192,410.5,192.1,409.9,192.1,409.2z"/>
	<polygon class="st0" points="209.2,404.2 203.9,404.2 203.9,407.7 208.9,407.7 208.9,410.5 203.9,410.5 203.9,416.7 200.8,416.7 
		200.8,401.5 209.2,401.5 	"/>
	<path class="st0" d="M243.3,405.8h-3.4c-1.2-1.3-2.7-1.9-4.3-1.9c-0.5,0-1,0.1-1.4,0.2c-0.4,0.1-1,0.4-1.6,0.7
		c-0.6,0.3-1.2,0.9-1.7,1.7c-0.5,0.8-0.8,1.6-0.8,2.5c0,1.5,0.6,2.8,1.7,3.8c1.1,1,2.4,1.5,3.8,1.5c0.8,0,1.5-0.1,2.2-0.5
		c0.7-0.3,1.3-0.7,1.9-1.3h3.5c-0.5,1.1-1.2,2-2.2,2.7c-1,0.7-1.8,1.1-2.6,1.3c-0.8,0.2-1.4,0.3-1.8,0.4c-0.5,0.1-0.9,0.1-1.4,0.1
		c-1.5-0.1-2.9-0.5-4.1-1.2c-1.2-0.7-2.1-1.4-2.6-2.3c-0.5-0.9-0.9-1.7-1.1-2.4c-0.2-0.7-0.3-1.5-0.3-2.3c0-0.4,0-0.8,0.1-1.1
		c0.1-0.4,0.3-0.9,0.6-1.6c0.3-0.7,0.8-1.4,1.5-2.2c0.7-0.8,1.6-1.4,2.7-1.9c1.1-0.5,2.3-0.8,3.6-0.8c0.5,0,1,0,1.5,0.1
		c0.5,0.1,1.1,0.3,2,0.6c0.8,0.3,1.7,0.8,2.5,1.5C242.4,404.1,243,404.9,243.3,405.8z"/>
	<polygon class="st0" points="256.6,416.7 248.6,416.7 248.6,401.5 251.6,401.5 251.6,414 256.6,414 	"/>
	<path class="st0" d="M272.6,411.8c0,0.9-0.2,1.7-0.7,2.6c-0.5,0.8-1.1,1.5-2,2c-0.9,0.5-1.8,0.7-2.8,0.7c-0.8,0-1.5-0.1-2.1-0.4
		c-0.7-0.3-1.4-0.8-2.2-1.6c-0.8-0.8-1.2-1.9-1.2-3.4v-10.2h3v10.2c0,0.8,0.2,1.4,0.7,1.9c0.5,0.5,1.1,0.7,1.7,0.7
		c0.4,0,0.7-0.1,1-0.2c0.3-0.1,0.6-0.3,1-0.6c0.4-0.3,0.6-0.9,0.6-1.7v-10.4h3.1V411.8z"/>
	<path class="st0" d="M286.7,412.8c0,1.2-0.4,2.2-1.2,3c-0.8,0.8-1.8,1.2-2.9,1.2c-1.4,0-2.5-0.3-3.4-1.1c-0.9-0.7-1.4-1.6-1.4-2.8
		h3c0,0.3,0.2,0.5,0.5,0.7c0.3,0.2,0.6,0.3,1,0.3c0.5,0,0.8-0.2,1.1-0.5c0.2-0.3,0.4-0.8,0.4-1.4v-11h3V412.8z"/>
	<rect x="293.1" y="409" class="st0" width="6.1" height="2.4"/>
	<polygon class="st0" points="318.9,416.7 315.5,416.7 308.6,405.6 308.6,416.7 305.6,416.7 305.6,401.5 309.1,401.5 315.9,412.7 
		315.9,401.5 318.9,401.5 	"/>
	<path class="st0" d="M340,416.7h-3.3l-1.8-3.9h-5.8l-1.8,3.9H324l6.8-15.2h2.3L340,416.7z M333.7,410l-1.8-4.6l-1.7,4.6H333.7z"/>
	<path class="st0" d="M355.4,406.3c-0.1,1.4-0.6,2.5-1.6,3.4c-0.9,0.8-2.2,1.2-3.9,1.2h-2v5.8h-3v-15.2h4.5c1.5,0,2.7,0.2,3.7,0.8
		c0.9,0.5,1.5,1,1.8,1.6c0.2,0.6,0.4,1,0.5,1.4C355.4,405.6,355.4,406,355.4,406.3z M352.4,406.2c0-1.3-0.9-2-2.8-2H348v4h1.5
		c0.9,0,1.6-0.2,2.1-0.5C352.2,407.3,352.4,406.8,352.4,406.2z"/>
	<path class="st0" d="M376.9,409.7c-0.1,0.9-0.4,2-1.1,3.2c-0.6,1.2-1.4,2.1-2.4,2.7c-1,0.6-1.8,1-2.6,1.2c-0.8,0.2-1.6,0.3-2.6,0.3
		c-1.3,0-2.5-0.2-3.7-0.8c-1.1-0.5-2-1.2-2.7-1.9c-0.7-0.8-1.2-1.6-1.5-2.5c-0.3-0.9-0.5-1.7-0.5-2.5c0-1.7,0.3-3,0.9-3.9
		c0.6-0.9,1.2-1.6,1.7-2.1c0.5-0.5,1.3-0.9,2.3-1.4c1-0.5,2.2-0.7,3.6-0.7c1.1,0,2.3,0.2,3.4,0.7c1.1,0.5,2,1.1,2.8,1.9
		c0.8,0.8,1.3,1.5,1.6,2.3c0.3,0.8,0.5,1.4,0.6,2C376.8,408.6,376.9,409.1,376.9,409.7z M373.9,409.2c0-0.7-0.1-1.3-0.3-1.9
		c-0.2-0.6-0.6-1.2-1-1.6c-0.4-0.5-0.9-0.9-1.4-1.1c-0.5-0.2-1-0.4-1.3-0.5c-0.4-0.1-0.8-0.1-1.1-0.1c-1.4,0-2.6,0.3-3.5,1.1
		c-0.9,0.7-1.5,1.4-1.8,2c-0.3,0.6-0.4,1.4-0.4,2.2c0,0.5,0.1,1,0.2,1.4c0.2,0.5,0.5,1,0.9,1.6c0.4,0.6,1.1,1.1,1.9,1.5
		c0.8,0.4,1.6,0.6,2.4,0.6c1.5,0,2.7-0.4,3.5-1.1c0.8-0.8,1.4-1.4,1.7-2.1C373.7,410.5,373.9,409.9,373.9,409.2z"/>
	<path class="st0" d="M397.9,405.8h-3.4c-1.2-1.3-2.7-1.9-4.3-1.9c-0.5,0-1,0.1-1.4,0.2c-0.4,0.1-1,0.4-1.6,0.7
		c-0.6,0.3-1.2,0.9-1.7,1.7c-0.5,0.8-0.8,1.6-0.8,2.5c0,1.5,0.6,2.8,1.7,3.8c1.1,1,2.4,1.5,3.8,1.5c0.8,0,1.5-0.1,2.2-0.5
		c0.7-0.3,1.3-0.7,1.9-1.3h3.5c-0.5,1.1-1.2,2-2.2,2.7c-1,0.7-1.8,1.1-2.6,1.3c-0.8,0.2-1.4,0.3-1.8,0.4c-0.5,0.1-0.9,0.1-1.4,0.1
		c-1.5-0.1-2.9-0.5-4.1-1.2c-1.2-0.7-2.1-1.4-2.6-2.3c-0.5-0.9-0.9-1.7-1.1-2.4c-0.2-0.7-0.3-1.5-0.3-2.3c0-0.4,0-0.8,0.1-1.1
		c0.1-0.4,0.3-0.9,0.6-1.6c0.3-0.7,0.8-1.4,1.5-2.2c0.7-0.8,1.6-1.4,2.7-1.9c1.1-0.5,2.3-0.8,3.6-0.8c0.5,0,1,0,1.5,0.1
		c0.5,0.1,1.1,0.3,2,0.6c0.8,0.3,1.7,0.8,2.5,1.5C397,404.1,397.5,404.9,397.9,405.8z"/>
	<path class="st0" d="M417.8,416.7h-3.3l-1.8-3.9h-5.8l-1.8,3.9h-3.3l6.8-15.2h2.3L417.8,416.7z M411.5,410l-1.8-4.6L408,410H411.5z
		"/>
	<polygon class="st0" points="158,339 158,316 151.8,316 151.8,304.8 175.3,304.8 175.3,316 169.1,316 169.1,339 	"/>
	<polygon class="st0" points="183.8,339 183.8,304.8 204.4,304.8 204.4,314.1 194.7,314.1 194.7,317.4 203.5,317.4 203.5,326.1 
		194.7,326.1 194.7,329.7 204.7,329.7 204.7,339 	"/>
	<path class="st0" d="M236.8,318.4c-1-1.1-2-1.9-3.1-2.4c-1-0.5-2.2-0.8-3.3-0.8c-1.8,0-3.3,0.6-4.4,1.9c-1.1,1.2-1.7,2.9-1.7,4.9
		c0,2,0.5,3.6,1.6,4.8c1,1.2,2.5,1.8,4.2,1.8c1.1,0,2.2-0.2,3.2-0.8c1.1-0.5,2.3-1.3,3.6-2.4l-0.3,12.9c-1.2,0.5-2.4,1-3.6,1.2
		c-1.2,0.2-2.4,0.4-3.6,0.4c-1.5,0-2.9-0.2-4.4-0.6c-1.4-0.4-2.6-0.9-3.8-1.6c-2.7-1.7-4.8-4-6.2-6.6c-1.4-2.7-2.1-5.7-2.1-9.2
		c0-2.5,0.4-4.9,1.2-7.1c0.8-2.2,1.9-4.1,3.5-5.7c1.5-1.7,3.3-3,5.3-3.8c2-0.9,4.2-1.3,6.6-1.3c1.3,0,2.5,0.1,3.7,0.4
		c1.2,0.3,2.4,0.7,3.5,1.3V318.4z"/>
	<polygon class="st0" points="246.6,339 246.6,304.8 257.7,304.8 257.7,316.2 264.5,316.2 264.5,304.8 275.6,304.8 275.6,339 
		264.5,339 264.5,327 257.7,327 257.7,339 	"/>
	<path class="st0" d="M286.4,339v-34.2h10.9l9.6,17.9c-0.1-0.8-0.2-1.7-0.3-2.6c0-1-0.1-2.2-0.1-3.8v-11.5h10.7V339h-11l-9.5-17.7
		c0.1,0.8,0.2,1.6,0.3,2.4c0,0.9,0.1,1.9,0.1,3V339H286.4z"/>
	<rect x="328" y="304.8" class="st0" width="11.3" height="34.2"/>
	<path class="st0" d="M373,318.4c-1-1.1-2-1.9-3.1-2.4c-1-0.5-2.2-0.8-3.3-0.8c-1.8,0-3.3,0.6-4.4,1.9c-1.1,1.2-1.7,2.9-1.7,4.9
		c0,2,0.5,3.6,1.6,4.8c1,1.2,2.5,1.8,4.2,1.8c1.1,0,2.2-0.2,3.2-0.8c1.1-0.5,2.3-1.3,3.6-2.4l-0.3,12.9c-1.2,0.5-2.4,1-3.6,1.2
		c-1.2,0.2-2.4,0.4-3.6,0.4c-1.5,0-2.9-0.2-4.4-0.6c-1.4-0.4-2.6-0.9-3.8-1.6c-2.7-1.7-4.8-4-6.2-6.6c-1.4-2.7-2.1-5.7-2.1-9.2
		c0-2.5,0.4-4.9,1.2-7.1c0.8-2.2,1.9-4.1,3.5-5.7c1.5-1.7,3.3-3,5.3-3.8c2-0.9,4.2-1.3,6.6-1.3c1.3,0,2.5,0.1,3.7,0.4
		c1.2,0.3,2.4,0.7,3.5,1.3V318.4z"/>
	<path class="st0" d="M378.6,339l11-34.2H402l10.8,34.2h-11.9l-1-4.3h-8.4l-1,4.3H378.6z M393.4,326.6h4.6l-1-3.9
		c-0.5-2-0.8-3.5-1-4.5c-0.2-1.1-0.3-2.1-0.3-3h-0.2c0,0.9-0.1,1.9-0.3,3c-0.2,1.1-0.5,2.6-1,4.5L393.4,326.6z"/>
	<polygon class="st0" points="419.5,339 419.5,304.8 430.6,304.8 430.6,327.9 441.4,327.9 441.4,339 	"/>
	<path class="st0" d="M141.3,372.2v-18.6h11.1v18.7c0,2.2,0.2,3.6,0.7,4.4c0.5,0.8,1.3,1.2,2.4,1.2c1.1,0,1.9-0.4,2.4-1.3
		c0.5-0.8,0.7-2.3,0.7-4.4v-18.7h11.1v18.6c0,2.4-0.1,4.4-0.4,6c-0.3,1.6-0.7,2.9-1.4,4c-1.3,2.1-2.9,3.8-5.1,4.9
		c-2.2,1.1-4.6,1.7-7.4,1.7c-2.7,0-5.2-0.6-7.4-1.7c-2.1-1.1-3.8-2.8-5.1-4.9c-0.6-1.1-1-2.3-1.3-3.9
		C141.5,376.7,141.3,374.6,141.3,372.2z"/>
	<path class="st0" d="M180.3,387.8v-34.2h10.9l9.6,17.9c-0.1-0.8-0.2-1.7-0.3-2.6c0-1-0.1-2.2-0.1-3.8v-11.5h10.7v34.2h-11
		l-9.5-17.7c0.1,0.8,0.2,1.6,0.3,2.4c0,0.9,0.1,1.9,0.1,3v12.3H180.3z"/>
	<rect x="222" y="353.6" class="st0" width="11.3" height="34.2"/>
	<path class="st0" d="M251.6,387.8l-11.8-34.2h12l3.3,12.4c0.5,1.8,0.8,3.3,1.1,4.6c0.2,1.2,0.3,2.4,0.4,3.5h0.2
		c0.1-1.1,0.3-2.4,0.6-3.6c0.3-1.3,0.6-2.7,1-4.2l3.5-12.7h11.8l-11.8,34.2H251.6z"/>
	<polygon class="st0" points="280,387.8 280,353.6 300.6,353.6 300.6,362.9 290.9,362.9 290.9,366.2 299.7,366.2 299.7,374.9 
		290.9,374.9 290.9,378.5 300.9,378.5 300.9,387.8 	"/>
	<path class="st0" d="M310.3,387.8v-34.2h14c4.1,0,7.2,1,9.3,3c2.2,2,3.2,4.8,3.2,8.6c0,2.4-0.5,4.4-1.6,6c-1.1,1.6-2.6,2.5-4.4,2.8
		l8.3,13.9h-12.5l-5.4-11.3v11.3H310.3z M321.2,362.4v6.7h1.7c1,0,1.9-0.3,2.4-0.9c0.6-0.6,0.9-1.4,0.9-2.4c0-1.1-0.3-1.9-0.9-2.5
		c-0.6-0.6-1.4-0.9-2.4-0.9H321.2z"/>
	<path class="st0" d="M343.3,384.9l3.5-9.6c1.6,1.2,3,2.1,4.2,2.7c1.3,0.6,2.4,0.9,3.5,0.9c0.8,0,1.4-0.1,1.8-0.5
		c0.4-0.3,0.6-0.8,0.6-1.3c0-1-1.1-1.7-3.3-2.2c-0.7-0.1-1.3-0.3-1.6-0.4c-2.3-0.6-4.1-1.7-5.3-3.3c-1.3-1.6-1.9-3.6-1.9-5.9
		c0-3.7,1.2-6.7,3.6-9c2.4-2.3,5.5-3.4,9.3-3.4c1.8,0,3.5,0.2,5.2,0.8c1.7,0.5,3.5,1.3,5.2,2.3l-3.4,8.9c-1.1-0.9-2.1-1.5-3.2-2
		c-1.1-0.4-2.1-0.7-3.2-0.7c-0.8,0-1.4,0.1-1.8,0.4c-0.4,0.3-0.6,0.7-0.6,1.2c0,1,1.6,1.8,4.6,2.5c0.5,0.1,0.9,0.2,1.1,0.3
		c2.1,0.5,3.8,1.6,5,3.3c1.3,1.6,1.9,3.6,1.9,5.9c0,3.8-1.3,6.9-3.7,9.3c-2.5,2.4-5.7,3.6-9.6,3.6c-2,0-4-0.3-6.1-1
		C347.4,387.1,345.3,386.2,343.3,384.9z"/>
	<rect x="377.7" y="353.6" class="st0" width="11.3" height="34.2"/>
	<polygon class="st0" points="403.8,387.8 403.8,364.8 397.6,364.8 397.6,353.6 421.1,353.6 421.1,364.8 414.9,364.8 414.9,387.8 	
		"/>
	<path class="st0" d="M434.6,387.8v-15.1l-10.3-19.1H437l2.6,6.6c0.3,0.6,0.5,1.4,0.9,2.6l0,0.2c0.2-0.6,0.4-1.3,0.8-2.4
		c0-0.2,0.1-0.3,0.1-0.4l2.6-6.6h12.6l-10.7,19.1v15.1H434.6z"/>
	<path class="st0" d="M247.1,439.4h-3.8l-4.3-5.9v5.9H236v-15.2h4.4c0.7,0,1.3,0,1.9,0.1c0.5,0,1.1,0.2,1.9,0.5
		c0.7,0.3,1.3,0.7,1.7,1.2c0.4,0.6,0.7,1.1,0.8,1.5c0.2,0.5,0.2,1,0.2,1.6c0,1-0.4,2-1,2.9c-0.7,0.9-1.7,1.5-3.2,1.8L247.1,439.4z
		 M243.9,429c0-1.4-1.1-2.1-3.2-2.1H239v4.5h1.9c1,0,1.7-0.2,2.2-0.6C243.6,430.4,243.9,429.8,243.9,429z"/>
	<path class="st0" d="M268.3,432.4c-0.1,0.9-0.4,2-1.1,3.2c-0.6,1.2-1.4,2.1-2.4,2.7c-1,0.6-1.8,1-2.6,1.2c-0.8,0.2-1.6,0.3-2.6,0.3
		c-1.3,0-2.5-0.2-3.7-0.8c-1.1-0.5-2-1.2-2.7-1.9c-0.7-0.8-1.2-1.6-1.5-2.5c-0.3-0.9-0.5-1.7-0.5-2.5c0-1.7,0.3-3,0.9-3.9
		c0.6-0.9,1.2-1.6,1.7-2.1c0.5-0.5,1.3-0.9,2.3-1.4c1-0.5,2.2-0.7,3.6-0.7c1.1,0,2.3,0.2,3.4,0.7c1.1,0.5,2,1.1,2.8,1.9
		c0.8,0.8,1.3,1.5,1.6,2.3c0.3,0.8,0.5,1.4,0.6,2C268.3,431.3,268.3,431.8,268.3,432.4z M265.3,431.8c0-0.7-0.1-1.3-0.3-1.9
		c-0.2-0.6-0.6-1.2-1-1.6c-0.4-0.5-0.9-0.9-1.4-1.1c-0.5-0.2-1-0.4-1.3-0.5c-0.4-0.1-0.8-0.1-1.1-0.1c-1.4,0-2.6,0.3-3.5,1.1
		c-0.9,0.7-1.5,1.4-1.8,2c-0.3,0.6-0.4,1.4-0.4,2.2c0,0.5,0.1,1,0.2,1.4c0.2,0.5,0.5,1,0.9,1.6c0.4,0.6,1.1,1.1,1.9,1.5
		c0.8,0.4,1.6,0.6,2.4,0.6c1.5,0,2.7-0.4,3.5-1.1c0.8-0.8,1.4-1.4,1.7-2.1C265.2,433.2,265.3,432.6,265.3,431.8z"/>
	<polygon class="st0" points="291.1,439.4 288.1,439.4 288.1,427.9 283.8,439.4 281.3,439.4 277,427.9 277,439.4 274,439.4 
		274,424.2 278.1,424.2 282.5,435.8 287,424.2 291.1,424.2 	"/>
	<path class="st0" d="M312,439.4h-3.3l-1.8-3.9H301l-1.8,3.9h-3.3l6.8-15.2h2.3L312,439.4z M305.7,432.7l-1.8-4.6l-1.7,4.6H305.7z"
		/>
	<polygon class="st0" points="330.2,439.4 326.8,439.4 319.9,428.3 319.9,439.4 316.9,439.4 316.9,424.2 320.4,424.2 327.1,435.4 
		327.1,424.2 330.2,424.2 	"/>
	<rect x="336.6" y="424.2" class="st0" width="3" height="15.2"/>
	<path class="st0" d="M360.8,439.4h-3.3l-1.8-3.9h-5.8l-1.8,3.9h-3.3l6.8-15.2h2.3L360.8,439.4z M354.5,432.7l-1.8-4.6l-1.7,4.6
		H354.5z"/>
	<path class="st1" d="M209.5,146.7h76c6.2,0,9,1.9,9,7.4v129.3c-10.7-0.3-20.9-2.5-30.3-6.4v-110c0-4.6-2.9-12.3-11.5-12.4h-43.2
		V146.7z"/>
	<path class="st2" d="M240.7,265.2c4.1,3,9.1,5.7,13.7,7.8V172.6c0-5.3-4.4-8.2-10.6-8.2h-34.3v35.4
		C209.5,228,217.6,248.5,240.7,265.2"/>
	<path class="st1" d="M385.8,146.7h-76c-6.2,0-9,1.9-9,7.4v129.3c10.7-0.3,20.9-2.5,30.3-6.4v-110c0-4.6,2.9-12.3,11.5-12.4h43.2
		V146.7z"/>
	<path class="st2" d="M354.6,265.2c-4.1,3-9.1,5.7-13.7,7.8V172.6c0-5.3,4.4-8.2,10.6-8.2h34.3v35.4
		C385.8,228,377.7,248.5,354.6,265.2"/>
</g>
</svg>
